<svg xmlns="http://www.w3.org/2000/svg" viewBox="0 0 64 64">
  <defs>
    <linearGradient id="bg" x1="0" y1="0" x2="1" y2="1">
      <stop offset="0" stop-color="#0f2a47" />
      <stop offset="1" stop-color="#1e4f8a" />
    </linearGradient>
  </defs>
  <rect x="4" y="4" width="56" height="56" rx="14" fill="url(#bg)" />
  <path
    d="M32 14c8.2 0 15.8 2.4 19 4.4v12.7c0 10-6 16.8-19 21.2-13-4.4-19-11.2-19-21.2V18.4C16.2 16.4 23.8 14 32 14z"
    fill="#e8f1ff"
    fill-opacity=".18"
  />
  <path
    d="M21.5 45.2c5.3-8.3 10.4-16.5 15.4-24.6M29.2 46.7c5.4-8.3 10.5-16.5 15.4-24.7M37 47.6c4.9-7.8 9.6-15.3 14.2-22.9"
    stroke="#ffffff"
    stroke-width="4.2"
    stroke-linecap="round"
    opacity=".96"
  />
</svg>
